<?xml version="1.0" encoding="UTF-8" standalone="no"?>
<svg
   xmlns:dc="http://purl.org/dc/elements/1.1/"
   xmlns:cc="http://creativecommons.org/ns#"
   xmlns:rdf="http://www.w3.org/1999/02/22-rdf-syntax-ns#"
   xmlns:svg="http://www.w3.org/2000/svg"
   xmlns="http://www.w3.org/2000/svg"
   version="1.0"
   id="svg2"
   height="40"
   width="200">
  <defs
     id="defs4" />
  <metadata
     id="metadata7">
    <rdf:RDF>
      <cc:Work
         rdf:about="">
        <dc:format>image/svg+xml</dc:format>
        <dc:type
           rdf:resource="http://purl.org/dc/dcmitype/StillImage" />
        <dc:title></dc:title>
      </cc:Work>
    </rdf:RDF>
  </metadata>
  <g
     transform="translate(0,20)"
     id="layer1">
    <g
       id="g847">
      <rect
         style="fill:#ffffff;fill-opacity:1;stroke:#000000;stroke-width:3.0000329;stroke-linejoin:miter;stroke-miterlimit:4;stroke-dasharray:none;stroke-opacity:1"
         id="rect2160"
         width="196.99997"
         height="36.999966"
         x="1.5000165"
         y="-18.499983" />
      <g
         aria-label="autoverse"
         transform="scale(0.92871595,1.0767555)"
         style="font-style:normal;font-variant:normal;font-weight:bold;font-stretch:normal;font-size:28.70140839px;line-height:0%;font-family:Cantarell;-inkscape-font-specification:'Cantarell Bold';text-align:start;letter-spacing:0px;word-spacing:0px;writing-mode:lr-tb;text-anchor:start;fill:#000000;fill-opacity:1;stroke:none;stroke-width:2.39178419"
         id="text2992">
        <path
           d="m 23.745341,-6.1120502 q 1.730279,0 3.027988,0.320422 1.31373,0.304401 2.114786,0.8170763 0.801055,0.5126753 1.297709,1.2816882 0.496654,0.7690129 0.672886,1.5700681 0.192253,0.785034 0.192253,1.76232125 V 10.0212 H 28.10308 L 27.65449,8.9798285 q -2.130807,1.3617935 -4.854395,1.3617935 -2.963903,0 -4.80633,-1.3938357 -1.842427,-1.3938359 -1.842427,-3.3003471 0,-1.1855616 0.592781,-2.0667223 0.608802,-0.8811606 1.586089,-1.409857 0.977287,-0.5286964 2.451229,-0.8651396 1.473941,-0.33644313 2.947882,-0.46461195 1.489963,-0.12816882 3.364432,-0.14418992 V 0.15220094 q 0,-0.6088019 -0.112148,-1.00932947 -0.09613,-0.40052757 -0.448591,-0.84911847 -0.352464,-0.4485908 -1.185561,-0.6728863 -0.817076,-0.2403165 -2.098765,-0.2403165 -1.794363,0 -4.758267,0.7049285 l -0.640844,0.1762321 -0.817076,-3.1561572 0.560738,-0.1922532 q 2.963904,-1.0253506 6.152104,-1.0253506 z M 27.093751,5.935819 V 3.6768435 h -0.384506 q -3.236263,0 -4.822352,0.3845065 -1.570068,0.3845065 -1.570068,1.2977093 0,0.5767597 0.961266,1.089435 0.961266,0.5126753 2.355102,0.5126753 1.970595,0 3.460558,-1.0253506 z"
           style="font-size:32.81121826px;line-height:1.25;letter-spacing:1.94748032;stroke-width:2.39178419"
           id="path817" />
        <path
           d="m 50.525531,-5.8076493 h 3.941192 V 10.0212 H 51.534861 L 51.070249,8.9477863 q -3.220242,1.3938357 -6.200167,1.3938357 -1.554047,0 -2.691545,-0.4005273 Q 41.041039,9.524546 40.384173,8.899723 39.743329,8.2588789 39.358823,7.3136338 38.974316,6.3683888 38.862169,5.5032492 38.750021,4.6381097 38.750021,3.5486747 v -9.356324 h 3.941191 v 9.3242818 q 0,0.4165487 0.03204,0.7369707 0.04806,0.3204221 0.240317,0.8170763 0.192253,0.480633 0.544717,0.8010551 0.352465,0.320422 1.057393,0.5607386 0.704929,0.2403165 1.666195,0.2403165 1.922532,0 4.293655,-0.8811606 z"
           style="font-size:32.81121826px;line-height:1.25;letter-spacing:1.94748032;stroke-width:2.39178419"
           id="path819" />
        <path
           d="m 72.707665,9.7328203 q -2.355103,0.6088017 -3.941192,0.6088017 -1.522004,0 -2.627461,-0.304401 Q 65.049577,9.7328203 64.424754,9.2682084 63.799931,8.7875753 63.431446,8.0506046 63.078982,7.2976127 62.966834,6.5926842 62.854686,5.8877557 62.854686,4.9425106 v -7.3697072 h -2.451228 v -3.3804527 h 2.451228 v -4.5339717 h 3.941192 v 4.5339717 h 5.81566 v 3.3804527 h -5.81566 v 7.0973485 q 0,0.4005276 0.128168,0.7690129 0.14419,0.3684854 0.448591,0.7369707 0.304401,0.3684854 0.913203,0.5927808 0.608802,0.2082744 1.441899,0.2082744 0.43257,0 2.339081,-0.3204221 l 0.624823,-0.1121477 0.624823,3.0279884 z"
           style="font-size:32.81121826px;line-height:1.25;letter-spacing:1.94748032;stroke-width:2.39178419"
           id="path821" />
        <path
           d="m 87.407942,-6.1120502 q 3.973234,0 6.39242,2.0987644 2.435208,2.0827434 2.435208,5.8316814 0,3.9411913 -2.483271,6.232209 -2.46725,2.2910174 -6.648758,2.2910174 -3.973233,0 -6.360377,-2.1468275 -2.371124,-2.1628489 -2.371124,-5.927808 0,-3.8610858 2.419187,-6.1200612 2.435208,-2.2589755 6.616715,-2.2589755 z m -0.256337,3.5566848 q -1.233625,0 -2.32306,0.464612 -1.089435,0.4646119 -1.842427,1.50598361 -0.736971,1.04137168 -0.736971,2.45122869 0,2.0827434 1.4419,3.5086215 1.441899,1.409857 3.748938,1.409857 2.098764,0 3.508621,-1.2336249 1.409857,-1.2336249 1.409857,-3.2683049 0,-1.1695405 -0.464612,-2.11478556 -0.464612,-0.96126616 -1.217604,-1.53802584 -0.752992,-0.5767597 -1.666194,-0.8811607 -0.913203,-0.3044009 -1.858448,-0.3044009 z"
           style="font-size:32.81121826px;line-height:1.25;letter-spacing:1.94748032;stroke-width:2.39178419"
           id="path823" />
        <path
           d="M 118.32157,-5.8076493 112.08936,10.0212 h -4.24559 l -6.52059,-15.8288493 h 4.54999 l 4.19753,11.6633628 4.11743,-11.6633628 z"
           style="font-size:32.81121826px;line-height:1.25;letter-spacing:1.94748032;stroke-width:2.39178419"
           id="path825" />
        <path
           d="m 131.9965,-6.1120502 q 1.37782,0 2.46725,0.3044009 1.10546,0.2883799 1.81039,0.7529919 0.72095,0.4485908 1.23362,1.1855616 0.5287,0.7209496 0.80106,1.3938359 0.27236,0.6568652 0.41655,1.58608916 0.16021,0.92922396 0.19225,1.57006807 0.032,0.64084407 0.032,1.52200477 v 1.7943635 h -11.90368 q 0.33645,1.1855616 1.90651,2.0667222 1.57007,0.8651396 4.13345,0.8651396 1.81038,0 3.68485,-0.5447175 l 0.65687,-0.1922533 0.78503,3.0440095 -0.57676,0.1922533 q -2.67552,0.9132026 -5.70351,0.9132026 -2.11479,0 -3.74894,-0.4646117 -1.63415,-0.464612 -2.62746,-1.2015827 -0.97729,-0.7369708 -1.61813,-1.7783424 -0.62482,-1.0413717 -0.86514,-2.0827434 -0.24032,-1.0413717 -0.24032,-2.2269333 0,-1.76232125 0.49666,-3.22024159 0.51267,-1.47394141 1.37781,-2.46724981 0.88116,-1.0093295 2.0507,-1.6982369 1.18556,-0.6889074 2.49929,-0.9933084 1.31374,-0.320422 2.73961,-0.320422 z m -0.65686,3.588727 q -1.84243,0 -2.94788,0.9292239 -1.10546,0.9132029 -1.31374,2.29101773 h 7.99453 q -0.12816,-1.73027913 -1.08943,-2.46724983 -0.96127,-0.7529918 -2.64348,-0.7529918 z"
           style="font-size:32.81121826px;line-height:1.25;letter-spacing:1.94748032;stroke-width:2.39178419"
           id="path827" />
        <path
           d="m 148.98779,-4.9585308 q 2.49929,-1.1535194 5.33503,-1.1535194 1.81038,0 3.30034,0.6889074 l 0.56074,0.2563377 -1.24964,3.284326 -0.62483,-0.2403165 q -1.12147,-0.4325698 -2.4352,-0.4325698 -2.09877,0 -4.03732,0.7529918 V 10.0212 h -3.94119 V -5.8076493 h 2.62746 z"
           style="font-size:32.81121826px;line-height:1.25;letter-spacing:1.94748032;stroke-width:2.39178419"
           id="path829" />
        <path
           d="m 173.07645,5.2949749 q -0.032,-0.4005276 -0.62483,-0.7049285 -0.57676,-0.304401 -1.48996,-0.5447175 -0.9132,-0.2403166 -2.00264,-0.4966542 -1.08943,-0.2563376 -2.17887,-0.624823 -1.07341,-0.3845065 -1.97059,-0.8811606 -0.89718,-0.5126753 -1.45792,-1.32975157 -0.56074,-0.83309734 -0.56074,-1.89049013 0,-0.624823 0.22429,-1.249646 0.24032,-0.6408441 0.84912,-1.3137304 0.6088,-0.6889074 1.53803,-1.2015827 0.92922,-0.5126753 2.48327,-0.8330973 1.55405,-0.3364432 3.50862,-0.3364432 1.15352,0 2.08274,0.1281688 0.92923,0.1121477 1.31373,0.2082744 0.38451,0.096127 1.16955,0.3364431 l 0.65686,0.1922532 -1.08943,3.2362628 -0.60881,-0.160211 q -2.08274,-0.5767597 -4.05334,-0.5767597 -0.9933,0 -1.7463,0.1441899 -0.75299,0.1281688 -1.15351,0.320422 -0.38451,0.1762322 -0.62483,0.4325698 -0.24031,0.2403165 -0.3044,0.4165487 -0.0641,0.160211 -0.0641,0.3044009 0,0.36848539 0.56074,0.67288634 0.57676,0.30440095 1.48996,0.56073859 0.9132,0.24031654 2.00264,0.52869639 1.10545,0.27235874 2.21091,0.67288628 1.10545,0.4005276 2.01866,0.9132029 0.9132,0.5126753 1.47394,1.3137304 0.57676,0.8010551 0.57676,1.7943635 0,0.6889074 -0.20828,1.3297515 -0.19225,0.6408441 -0.76901,1.3297515 -0.56074,0.6889075 -1.45792,1.2015827 -0.89718,0.4966542 -2.41919,0.8330972 -1.522,0.320422 -3.4926,0.320422 -3.07605,0 -6.13608,-1.2496458 l -0.59278,-0.2403165 1.18556,-3.2042205 0.6088,0.2403165 q 2.86778,1.0734139 5.07869,1.0734139 2.0507,0 3.01197,-0.4005276 0.96127,-0.4165487 0.96127,-1.2656671 z"
           style="font-size:32.81121826px;line-height:1.25;letter-spacing:1.94748032;stroke-width:2.39178419"
           id="path831" />
        <path
           d="m 192.2466,-6.1120502 q 1.37782,0 2.46725,0.3044009 1.10546,0.2883799 1.81039,0.7529919 0.72095,0.4485908 1.23362,1.1855616 0.5287,0.7209496 0.80106,1.3938359 0.27236,0.6568652 0.41655,1.58608916 0.16021,0.92922396 0.19225,1.57006807 0.032,0.64084407 0.032,1.52200477 v 1.7943635 h -11.90368 q 0.33644,1.1855616 1.90651,2.0667222 1.57007,0.8651396 4.13345,0.8651396 1.81038,0 3.68485,-0.5447175 l 0.65687,-0.1922533 0.78503,3.0440095 -0.57676,0.1922533 q -2.67552,0.9132026 -5.70351,0.9132026 -2.11479,0 -3.74894,-0.4646117 -1.63415,-0.464612 -2.62746,-1.2015827 -0.97729,-0.7369708 -1.61813,-1.7783424 -0.62483,-1.0413717 -0.86514,-2.0827434 -0.24032,-1.0413717 -0.24032,-2.2269333 0,-1.76232125 0.49666,-3.22024159 0.51267,-1.47394141 1.37781,-2.46724981 0.88116,-1.0093295 2.0507,-1.6982369 1.18556,-0.6889074 2.49929,-0.9933084 1.31373,-0.320422 2.73961,-0.320422 z m -0.65686,3.588727 q -1.84243,0 -2.94789,0.9292239 -1.10545,0.9132029 -1.31373,2.29101773 h 7.99453 q -0.12816,-1.73027913 -1.08943,-2.46724983 -0.96127,-0.7529918 -2.64348,-0.7529918 z"
           style="font-size:32.81121826px;line-height:1.25;letter-spacing:1.94748032;stroke-width:2.39178419"
           id="path833" />
      </g>
    </g>
  </g>
</svg>
