<?xml version="1.0" encoding="UTF-8" standalone="no"?>
<svg
   xmlns:dc="http://purl.org/dc/elements/1.1/"
   xmlns:cc="http://creativecommons.org/ns#"
   xmlns:rdf="http://www.w3.org/1999/02/22-rdf-syntax-ns#"
   xmlns:svg="http://www.w3.org/2000/svg"
   xmlns="http://www.w3.org/2000/svg"
   version="1.1"
   id="svg2"
   viewBox="0 0 150 18"
   height="18"
   width="150">
  <defs
     id="defs4" />
  <metadata
     id="metadata7">
    <rdf:RDF>
      <cc:Work
         rdf:about="">
        <dc:format>image/svg+xml</dc:format>
        <dc:type
           rdf:resource="http://purl.org/dc/dcmitype/StillImage" />
        <dc:title></dc:title>
      </cc:Work>
    </rdf:RDF>
  </metadata>
  <g
     transform="translate(0,-1034.3622)"
     id="layer1">
    <g
       id="text915"
       style="font-style:normal;font-weight:normal;font-size:16.77955055px;line-height:1.25;font-family:sans-serif;letter-spacing:0px;word-spacing:0px;fill:#ffffff;fill-opacity:1;stroke:none;stroke-width:0.41948876"
       aria-label="ping@autoverse.net">
      <path
         id="path814"
         style="font-style:normal;font-variant:normal;font-weight:normal;font-stretch:normal;font-family:'Clear Sans';-inkscape-font-specification:'Clear Sans';fill:#ffffff;stroke-width:0.41948876"
         d="m 7.2673132,1043.1901 q 0,2.1138 -0.9258249,3.3674 -0.9176316,1.2453 -2.5316802,1.2453 -1.286323,0 -2.40059,-0.9586 v 3.9409 H -1.9501895e-6 v -11.8309 H 1.4092181 v 0.8603 q 0.4833953,-0.467 1.1634259,-0.7865 0.6800306,-0.3196 1.4583789,-0.3196 1.5321172,0 2.3842037,1.1635 0.8520866,1.1552 0.8520866,3.3182 z m -1.4583789,0.033 q 0,-3.2609 -2.048285,-3.2609 -0.6718375,0 -1.286323,0.3359 -0.6144855,0.3359 -1.0651082,0.7702 v 4.5471 q 1.0978808,0.9259 2.2121478,0.9259 0.9585974,0 1.5730829,-0.803 0.6144855,-0.8029 0.6144855,-2.5152 z" />
      <path
         id="path816"
         style="font-style:normal;font-variant:normal;font-weight:normal;font-stretch:normal;font-family:'Clear Sans';-inkscape-font-specification:'Clear Sans';fill:#ffffff;stroke-width:0.41948876"
         d="m 11.265566,1036.7748 q 0,0.4916 -0.221215,0.6719 -0.221215,0.172 -0.70461,0.172 -0.5161679,0 -0.7128033,-0.2212 -0.1966354,-0.2212 -0.1966354,-0.6227 0,-0.4342 0.2130217,-0.6308 0.2130216,-0.2049 0.696417,-0.2049 0.499781,0 0.712803,0.1967 0.213022,0.1884 0.213022,0.639 z m -1.6304352,10.774 v -8.5946 h 1.4092202 v 8.5946 z" />
      <path
         id="path818"
         style="font-style:normal;font-variant:normal;font-weight:normal;font-stretch:normal;font-family:'Clear Sans';-inkscape-font-specification:'Clear Sans';fill:#ffffff;stroke-width:0.41948876"
         d="m 19.229298,1047.5488 v -5.0633 q 0,-1.229 -0.122897,-1.6387 -0.122897,-0.4096 -0.401464,-0.5899 -0.278567,-0.1884 -0.811121,-0.1884 -0.540747,0 -1.261743,0.4096 -0.720997,0.4097 -1.392834,0.9996 v 6.0711 h -1.40922 v -8.5946 h 1.40922 v 1.2782 q 0.598099,-0.5981 1.392834,-1.057 0.794734,-0.467 1.597662,-0.467 1.245357,0 1.82707,0.7128 0.581713,0.7046 0.581713,2.3924 v 5.7352 z" />
      <path
         id="path820"
         style="font-style:normal;font-variant:normal;font-weight:normal;font-stretch:normal;font-family:'Clear Sans';-inkscape-font-specification:'Clear Sans';fill:#ffffff;stroke-width:0.41948876"
         d="m 30.199911,1047.3604 q 0,1.7287 -0.860279,2.5726 -0.852087,0.8521 -2.834827,0.8521 -1.892615,0 -3.121586,-0.8029 l 0.524361,-1.1389 q 1.106074,0.7702 2.597225,0.7702 1.204392,0 1.736946,-0.508 0.540747,-0.4998 0.540747,-1.655 v -1.0077 q -0.483395,0.467 -1.155233,0.7865 -0.671837,0.3195 -1.458378,0.3195 -1.581276,0 -2.408784,-1.1224 -0.827507,-1.1307 -0.827507,-3.2609 0,-2.0974 0.925825,-3.2773 0.925825,-1.1798 2.53168,-1.1798 1.30271,0 2.392397,0.9504 v -0.7046 h 1.417413 z m -1.417413,-6.4726 q -1.12246,-0.9258 -2.212148,-0.9258 -1.073301,0 -1.630434,0.8357 -0.548941,0.8357 -0.548941,2.335 0,1.655 0.516168,2.4088 0.516168,0.7456 1.532117,0.7456 1.179812,0 2.343238,-1.1061 z" />
      <path
         id="path822"
         style="font-style:normal;font-variant:normal;font-weight:normal;font-stretch:normal;font-family:'Clear Sans';-inkscape-font-specification:'Clear Sans';fill:#ffffff;stroke-width:0.41948876"
         d="m 46.479682,1042.8869 q 0,2.1794 -0.835701,3.3592 -0.8357,1.1716 -2.302272,1.1716 -0.876666,0 -1.360061,-0.2539 -0.475202,-0.254 -0.639065,-0.9095 -1.196199,0.9422 -2.433363,0.9422 -0.983176,0 -1.655014,-0.4752 -0.671837,-0.4752 -1.032336,-1.3682 -0.352305,-0.8931 -0.352305,-2.0319 0,-1.9664 0.909439,-3.0561 0.909438,-1.0897 2.53168,-1.0897 1.01595,0 1.966354,0.6719 v -0.4343 h 1.392834 v 5.9237 q 0,0.5325 0.172055,0.7292 0.18025,0.1884 0.614486,0.1884 0.794735,0 1.27813,-0.8848 0.483395,-0.8931 0.483395,-2.417 0,-2.8103 -1.441993,-4.3178 -1.433799,-1.5075 -4.112956,-1.5075 -1.646821,0 -2.982303,0.7619 -1.335482,0.762 -2.081057,2.1302 -0.745576,1.3683 -0.745576,3.0151 0,2.6792 1.54031,4.285 1.548504,1.6059 4.235854,1.6059 1.974546,0 3.506664,-0.3687 l 0.270373,1.1716 q -1.515731,0.3523 -3.793424,0.3523 -2.097443,0 -3.686913,-0.8685 -1.589469,-0.8602 -2.457942,-2.4661 -0.868472,-1.614 -0.868472,-3.7279 0,-1.9581 0.901245,-3.5804 0.901245,-1.6222 2.53168,-2.5399 1.630435,-0.9258 3.613175,-0.9258 3.244483,0 5.038781,1.8435 1.794298,1.8352 1.794298,5.0715 z m -5.219031,-1.8188 q -1.007756,-0.6473 -1.728752,-0.6473 -1.212585,0 -1.728753,0.7292 -0.507974,0.7292 -0.507974,2.1384 0,2.5972 1.933581,2.5972 0.827507,0 2.031898,-0.8685 z" />
      <path
         id="path824"
         style="font-style:normal;font-variant:normal;font-weight:normal;font-stretch:normal;font-family:'Clear Sans';-inkscape-font-specification:'Clear Sans';fill:#ffffff;stroke-width:0.41948876"
         d="m 53.746997,1047.5488 v -1.0733 q -0.655451,0.5735 -1.319095,0.9504 -0.663645,0.3769 -1.499345,0.3769 -1.228971,0 -1.900808,-0.7456 -0.663645,-0.7537 -0.663645,-1.9253 0,-0.8849 0.344112,-1.4666 0.352305,-0.5899 1.007756,-0.9258 0.663645,-0.3442 1.917195,-0.4916 l 2.11383,-0.1885 v -0.4178 q 0,-0.9914 -0.557133,-1.3519 -0.548941,-0.3605 -1.523924,-0.3605 -0.868473,0 -1.343675,0.3032 -0.467009,0.3031 -0.671838,0.6554 l -1.155232,-0.7046 q 0.39327,-0.7128 1.196198,-1.0897 0.811121,-0.3851 2.007319,-0.3851 1.85165,0 2.654578,0.6719 0.802927,0.6718 0.802927,2.3268 v 5.8417 z m 0,-4.3587 -1.376447,0.1311 q -1.401027,0.1229 -1.974547,0.5489 -0.57352,0.4179 -0.57352,1.229 0,0.7701 0.385078,1.1061 0.385077,0.3359 1.155233,0.3359 0.319532,0 0.630871,-0.1147 0.31134,-0.1229 0.614486,-0.295 0.303146,-0.1802 0.581713,-0.4014 0.28676,-0.2295 0.557133,-0.4425 z" />
      <path
         id="path826"
         style="font-style:normal;font-variant:normal;font-weight:normal;font-stretch:normal;font-family:'Clear Sans';-inkscape-font-specification:'Clear Sans';fill:#ffffff;stroke-width:0.41948876"
         d="m 63.210071,1047.5488 v -1.2781 q -0.655451,0.6554 -1.441993,1.0979 -0.786541,0.4342 -1.54031,0.4342 -0.86028,0 -1.401027,-0.3195 -0.532554,-0.3277 -0.778348,-0.975 -0.237601,-0.6555 -0.237601,-1.8107 v -5.7434 h 1.40922 v 5.0716 q 0,1.2289 0.122897,1.6386 0.13109,0.4097 0.409657,0.5981 0.278567,0.1803 0.811121,0.1803 0.532554,0 1.25355,-0.4097 0.720997,-0.4179 1.392834,-0.9996 v -6.0793 h 1.40922 v 8.5946 z" />
      <path
         id="path828"
         style="font-style:normal;font-variant:normal;font-weight:normal;font-stretch:normal;font-family:'Clear Sans';-inkscape-font-specification:'Clear Sans';fill:#ffffff;stroke-width:0.41948876"
         d="m 71.706358,1047.5488 q -0.819314,0.254 -1.622242,0.254 -1.310902,0 -1.884422,-0.6882 -0.565327,-0.6882 -0.565327,-2.163 v -4.8176 h -1.228971 v -1.1798 h 1.228971 v -2.3924 h 1.40922 v 2.3924 h 2.179376 v 1.1798 h -2.179376 v 4.5472 q 0,1.0406 0.204829,1.4912 0.213022,0.4506 0.934018,0.4506 0.622679,0 1.155233,-0.2294 z" />
      <path
         id="path830"
         style="font-style:normal;font-variant:normal;font-weight:normal;font-stretch:normal;font-family:'Clear Sans';-inkscape-font-specification:'Clear Sans';fill:#ffffff;stroke-width:0.41948876"
         d="m 80.341927,1043.272 q 0,2.2367 -0.96679,3.3838 -0.958597,1.147 -2.802054,1.147 -1.843456,0 -2.81844,-1.1306 -0.974984,-1.1389 -0.974984,-3.4002 0,-2.3023 0.974984,-3.4329 0.983177,-1.1307 2.81844,-1.1307 1.85165,0 2.810247,1.1553 0.958597,1.147 0.958597,3.4083 z m -1.458378,0 q 0,-1.7533 -0.581713,-2.5481 -0.57352,-0.7947 -1.728753,-0.7947 -1.188005,0 -1.761525,0.8029 -0.57352,0.7948 -0.57352,2.5399 0,1.6796 0.548941,2.4907 0.557133,0.8111 1.786104,0.8111 1.171619,0 1.736946,-0.8029 0.57352,-0.8029 0.57352,-2.4989 z" />
      <path
         id="path832"
         style="font-style:normal;font-variant:normal;font-weight:normal;font-stretch:normal;font-family:'Clear Sans';-inkscape-font-specification:'Clear Sans';fill:#ffffff;stroke-width:0.41948876"
         d="m 85.946039,1047.5488 h -1.392833 l -3.006883,-8.5946 h 1.515731 l 2.228534,6.7512 2.212148,-6.7512 h 1.458379 z" />
      <path
         id="path834"
         style="font-style:normal;font-variant:normal;font-weight:normal;font-stretch:normal;font-family:'Clear Sans';-inkscape-font-specification:'Clear Sans';fill:#ffffff;stroke-width:0.41948876"
         d="m 91.640268,1043.4195 q 0,1.7042 0.581712,2.4333 0.581713,0.721 1.868036,0.721 0.57352,0 1.007757,-0.2376 0.434236,-0.2458 0.8357,-0.7865 l 1.163426,0.721 q -0.491589,0.7374 -1.196199,1.1388 -0.70461,0.3933 -1.909001,0.3933 -1.917195,0 -2.867599,-1.1143 -0.942211,-1.1142 -0.942211,-3.3673 0,-2.3597 0.917631,-3.4821 0.925825,-1.1307 2.785668,-1.1307 1.6714,0 2.507101,0.9668 0.8357,0.9586 0.8357,2.9577 v 0.7866 z m 4.211273,-1.1061 q -0.01639,-1.1552 -0.491588,-1.7943 -0.467009,-0.6391 -1.523924,-0.6391 -1.007756,0 -1.515731,0.5818 -0.499781,0.5735 -0.663644,1.8516 z" />
      <path
         id="path836"
         style="font-style:normal;font-variant:normal;font-weight:normal;font-stretch:normal;font-family:'Clear Sans';-inkscape-font-specification:'Clear Sans';fill:#ffffff;stroke-width:0.41948876"
         d="m 104.11023,1040.3471 q -0.22941,-0.098 -0.65545,-0.098 -0.63087,0 -1.22078,0.295 -0.58171,0.2868 -1.36006,1.0651 v 5.94 h -1.40922 v -8.5946 h 1.40922 v 1.3929 q 0.58991,-0.5981 1.23716,-1.057 0.65546,-0.467 1.45019,-0.467 0.53255,0 0.85209,0.1721 z" />
      <path
         id="path838"
         style="font-style:normal;font-variant:normal;font-weight:normal;font-stretch:normal;font-family:'Clear Sans';-inkscape-font-specification:'Clear Sans';fill:#ffffff;stroke-width:0.41948876"
         d="m 111.6643,1045.2302 q 0,1.2044 -0.85208,1.8926 -0.85209,0.68 -2.42517,0.68 -1.0733,0 -1.92539,-0.4014 -0.85209,-0.4097 -1.24536,-1.1471 l 1.13066,-0.6882 q 0.64726,1.0405 2.08105,1.0405 0.93402,0 1.39284,-0.3523 0.46701,-0.3605 0.46701,-0.9668 0,-0.3605 -0.16387,-0.5817 -0.16386,-0.2294 -0.50797,-0.3933 -0.34411,-0.172 -1.40922,-0.4588 -1.53212,-0.3523 -2.16299,-0.975 -0.62268,-0.6226 -0.62268,-1.655 0,-1.1388 0.81932,-1.827 0.81931,-0.6883 2.2695,-0.6883 1.12246,0 1.88442,0.4425 0.76196,0.4424 1.11427,1.0651 l -1.12247,0.6882 q -0.67183,-1.0078 -1.909,-1.0078 -0.70461,0 -1.1962,0.3114 -0.48339,0.3113 -0.48339,0.9668 0,0.5817 0.42604,0.8439 0.42605,0.2621 1.33548,0.4834 1.45838,0.3768 2.01552,0.7046 0.55713,0.3277 0.81931,0.8111 0.27037,0.4752 0.27037,1.2126 z" />
      <path
         id="path840"
         style="font-style:normal;font-variant:normal;font-weight:normal;font-stretch:normal;font-family:'Clear Sans';-inkscape-font-specification:'Clear Sans';fill:#ffffff;stroke-width:0.41948876"
         d="m 114.94156,1043.4195 q 0,1.7042 0.58171,2.4333 0.58172,0.721 1.86804,0.721 0.57352,0 1.00776,-0.2376 0.43423,-0.2458 0.8357,-0.7865 l 1.16342,0.721 q -0.49159,0.7374 -1.1962,1.1388 -0.70461,0.3933 -1.909,0.3933 -1.91719,0 -2.8676,-1.1143 -0.94221,-1.1142 -0.94221,-3.3673 0,-2.3597 0.91763,-3.4821 0.92583,-1.1307 2.78567,-1.1307 1.6714,0 2.5071,0.9668 0.8357,0.9586 0.8357,2.9577 v 0.7866 z m 4.21127,-1.1061 q -0.0164,-1.1552 -0.49158,-1.7943 -0.46701,-0.6391 -1.52393,-0.6391 -1.00775,0 -1.51573,0.5818 -0.49978,0.5735 -0.66364,1.8516 z" />
      <path
         id="path842"
         style="font-style:normal;font-variant:normal;font-weight:normal;font-stretch:normal;font-family:'Clear Sans';-inkscape-font-specification:'Clear Sans';fill:#ffffff;stroke-width:0.41948876"
         d="m 124.64223,1046.7459 q 0,0.5162 -0.24579,0.721 -0.2376,0.1966 -0.76196,0.1966 -0.58172,0 -0.78654,-0.2376 -0.19664,-0.2458 -0.19664,-0.68 0,-0.4916 0.22122,-0.7046 0.2294,-0.2212 0.76196,-0.2212 0.55713,0 0.77835,0.2212 0.2294,0.213 0.2294,0.7046 z" />
      <path
         id="path844"
         style="font-style:normal;font-variant:normal;font-weight:normal;font-stretch:normal;font-family:'Clear Sans';-inkscape-font-specification:'Clear Sans';fill:#ffffff;stroke-width:0.41948876"
         d="m 132.72067,1047.5488 v -5.0633 q 0,-1.229 -0.12289,-1.6387 -0.1229,-0.4096 -0.40147,-0.5899 -0.27856,-0.1884 -0.81112,-0.1884 -0.54075,0 -1.26174,0.4096 -0.721,0.4097 -1.39284,0.9996 v 6.0711 h -1.40922 v -8.5946 h 1.40922 v 1.2782 q 0.5981,-0.5981 1.39284,-1.057 0.79473,-0.467 1.59766,-0.467 1.24536,0 1.82707,0.7128 0.58171,0.7046 0.58171,2.3924 v 5.7352 z" />
      <path
         id="path846"
         style="font-style:normal;font-variant:normal;font-weight:normal;font-stretch:normal;font-family:'Clear Sans';-inkscape-font-specification:'Clear Sans';fill:#ffffff;stroke-width:0.41948876"
         d="m 137.88236,1043.4195 q 0,1.7042 0.58171,2.4333 0.58171,0.721 1.86803,0.721 0.57352,0 1.00776,-0.2376 0.43424,-0.2458 0.8357,-0.7865 l 1.16343,0.721 q -0.49159,0.7374 -1.1962,1.1388 -0.70461,0.3933 -1.909,0.3933 -1.9172,0 -2.8676,-1.1143 -0.94221,-1.1142 -0.94221,-3.3673 0,-2.3597 0.91763,-3.4821 0.92582,-1.1307 2.78567,-1.1307 1.6714,0 2.5071,0.9668 0.8357,0.9586 0.8357,2.9577 v 0.7866 z m 4.21127,-1.1061 q -0.0164,-1.1552 -0.49159,-1.7943 -0.46701,-0.6391 -1.52392,-0.6391 -1.00776,0 -1.51573,0.5818 -0.49979,0.5735 -0.66365,1.8516 z" />
      <path
         id="path848"
         style="font-style:normal;font-variant:normal;font-weight:normal;font-stretch:normal;font-family:'Clear Sans';-inkscape-font-specification:'Clear Sans';fill:#ffffff;stroke-width:0.41948876"
         d="m 150.00001,1047.5488 q -0.81932,0.254 -1.62225,0.254 -1.3109,0 -1.88442,-0.6882 -0.56532,-0.6882 -0.56532,-2.163 v -4.8176 h -1.22898 v -1.1798 h 1.22898 v -2.3924 h 1.40922 v 2.3924 h 2.17937 v 1.1798 h -2.17937 v 4.5472 q 0,1.0406 0.20482,1.4912 0.21303,0.4506 0.93402,0.4506 0.62268,0 1.15523,-0.2294 z" />
    </g>
  </g>
</svg>
